<svg xmlns="http://www.w3.org/2000/svg" version="1.1" xmlns:xlink="http://www.w3.org/1999/xlink" xmlns:svgjs="http://svgjs.com/svgjs" height="58.38425903320313" width="302.6903564453125"><defs id="SvgjsDefs1821"></defs><g id="SvgjsG1822" rel="mainfill" name="main_text" xmlns:name="main_text" transform="translate(91.86035389900206,-195.93287048339843)" fill="#000000"><path d="M30.49 239.75C30.49 239.54 30.33 239.50 30.16 239.50C29.91 239.50 29.70 239.54 29.46 239.54C27.35 239.54 24.16 235.82 23.09 234.37L17.50 226.84C17.42 226.72 17.21 226.47 17.21 226.26C17.21 226.14 17.29 225.98 17.38 225.85C19.78 224.11 21.60 220.93 21.60 217.95C21.60 212.82 17.33 210.75 12.74 210.75C10.96 210.75 9.23 211.04 7.45 211.04C6.16 211.04 5.01 210.87 3.72 210.87C3.43 210.87 3.14 210.87 3.14 211.12C3.14 211.25 3.39 211.29 3.64 211.33C5.34 211.50 6.21 212.45 6.21 214.43L6.21 235.95C6.21 237.10 6.00 238.63 4.96 239.38C4.55 239.67 3.48 239.59 3.48 239.96C3.48 240.12 3.72 240.12 4.51 240.12C5.63 240.12 6.78 240 7.90 240C9.10 240 10.26 240.17 11.46 240.17C11.79 240.17 12.12 240.12 12.12 239.92C12.12 239.63 11.05 239.71 10.59 239.54C10.09 239.38 9.76 239.13 9.52 238.63C8.94 237.56 8.85 234.70 8.85 233.50L8.85 227.92C8.85 227.55 9.06 227.38 9.43 227.38L13.57 227.38C15.31 227.38 16.18 229.62 17.04 230.82L21.39 236.98C23.54 240 26.06 240.08 29.62 240.08C29.83 240.08 30.49 240.08 30.49 239.75ZM18.95 219.40C18.95 221.63 18.04 224.78 15.85 225.81C15.31 226.06 14.23 226.06 13.65 226.06L11.87 226.06C11.42 226.06 8.85 226.06 8.85 225.44L8.85 214.35C8.85 213.44 9.10 212.32 10.22 212.32L11.46 212.32C15.76 212.32 18.95 214.93 18.95 219.40ZM57.13 239.96C57.13 239.83 56.14 239.67 55.98 239.63C55.35 239.42 54.98 239.09 54.65 238.51C54.24 237.81 53.91 237.02 53.62 236.28L45.72 215.43C45.05 213.73 44.60 211.99 43.89 210.34C43.81 210.17 43.65 209.59 43.36 209.59C43.03 209.59 42.20 212.20 41.04 215.09L34.05 232.59C33.18 234.83 31.90 238.18 30.70 239.34C30.28 239.71 29.41 239.67 29.41 239.88C29.41 240.12 29.87 240.12 29.99 240.12C30.99 240.12 31.65 240 32.64 240C33.47 240 34.71 240.12 35.54 240.12C35.66 240.12 35.95 240.12 35.95 239.92C35.95 239.71 35.12 239.63 34.96 239.54C34.38 239.21 34.17 238.68 34.17 238.06C34.17 237.52 34.63 235.90 34.83 235.37L36.57 230.65C37.03 229.45 37.15 229.45 38.39 229.45L46.63 229.45C48.07 229.45 48.16 229.66 48.57 230.77L50.51 235.95C50.72 236.57 51.01 237.56 51.01 238.18C51.01 238.84 50.76 239.42 50.10 239.63C49.85 239.71 48.82 239.63 48.82 240C48.82 240.12 49.48 240.12 49.56 240.12C50.68 240.12 51.76 240 52.87 240C54.20 240 55.52 240.17 56.84 240.17C56.97 240.17 57.13 240.12 57.13 239.96ZM47.37 227.55C47.37 227.92 46.79 227.92 46.34 227.92L38.35 227.92C38.02 227.92 37.81 227.92 37.81 227.67C37.81 227.34 40.01 221.88 40.21 221.30L41.83 217.20C42.28 216.05 42.53 215.59 42.74 215.59C42.94 215.59 43.23 216.13 43.94 218.03L45.22 221.47C45.43 222.00 47.37 227.22 47.37 227.55ZM68.51 239.96C68.51 239.63 67.23 239.79 66.48 239.38C65.20 238.68 65.16 236.61 65.16 234.21L65.16 214.89C65.16 213.89 65.20 212.24 66.15 211.66C66.61 211.37 67.85 211.21 67.85 211.00C67.85 210.75 67.23 210.75 67.06 210.75C65.82 210.75 64.54 211.04 63.30 211.04C62.26 211.04 61.19 210.79 60.15 210.79C59.74 210.79 59.45 210.87 59.45 211.04C59.45 211.16 59.82 211.33 60.24 211.37C62.10 211.58 62.51 212.78 62.51 214.76L62.51 234.95C62.51 236.07 62.51 238.14 61.73 239.05C61.31 239.54 60.86 239.67 60.24 239.67C60.15 239.67 59.70 239.71 59.70 239.88C59.70 240.08 59.95 240.08 60.24 240.08C61.60 240.08 62.97 240 64.33 240C65.61 240 66.90 240.17 68.18 240.17C68.30 240.17 68.51 240.12 68.51 239.96ZM90.98 236.36C90.98 236.24 90.89 236.19 90.81 236.19C90.60 236.19 89.73 237.48 89.24 237.89C88.66 238.35 86.71 238.35 85.80 238.35C84.27 238.35 82.70 238.35 81.21 238.01C79.97 237.72 79.89 236.52 79.85 235.49C79.76 234.37 79.72 233.30 79.72 232.18L79.72 214.31C79.72 213.56 79.80 212.74 80.26 212.12C80.63 211.62 81.00 211.50 81.54 211.37C81.71 211.33 82.12 211.21 82.12 211.08C82.12 210.92 82.04 210.87 81.87 210.87C80.72 210.87 79.60 211.04 78.44 211.04C77.28 211.04 76.16 210.87 75.01 210.87C74.72 210.87 74.51 210.87 74.51 211.04C74.51 211.21 74.84 211.25 74.96 211.29C75.50 211.41 76.08 211.50 76.41 211.95C76.95 212.65 77.07 213.85 77.07 214.72L77.07 233.46C77.07 234.75 76.99 237.68 76.45 238.76C76.16 239.34 75.75 239.59 75.13 239.71C75.01 239.75 74.51 239.67 74.51 239.92C74.51 240.08 74.84 240.08 75.09 240.08C76.33 240.08 77.57 240 78.81 240C82.45 240 86.05 240.08 89.69 240.08C89.98 240.08 89.98 240.04 90.02 239.79C90.27 238.22 90.98 236.77 90.98 236.36ZM122.09 239.75C122.09 239.54 121.92 239.50 121.76 239.50C121.51 239.50 121.30 239.54 121.05 239.54C118.94 239.54 115.76 235.82 114.68 234.37L109.10 226.84C109.01 226.72 108.81 226.47 108.81 226.26C108.81 226.14 108.89 225.98 108.97 225.85C111.37 224.11 113.19 220.93 113.19 217.95C113.19 212.82 108.93 210.75 104.34 210.75C102.56 210.75 100.82 211.04 99.04 211.04C97.76 211.04 96.60 210.87 95.32 210.87C95.03 210.87 94.74 210.87 94.74 211.12C94.74 211.25 94.99 211.29 95.24 211.33C96.93 211.50 97.80 212.45 97.80 214.43L97.80 235.95C97.80 237.10 97.59 238.63 96.56 239.38C96.15 239.67 95.07 239.59 95.07 239.96C95.07 240.12 95.32 240.12 96.11 240.12C97.22 240.12 98.38 240 99.50 240C100.70 240 101.86 240.17 103.06 240.17C103.39 240.17 103.72 240.12 103.72 239.92C103.72 239.63 102.64 239.71 102.19 239.54C101.69 239.38 101.36 239.13 101.11 238.63C100.53 237.56 100.45 234.70 100.45 233.50L100.45 227.92C100.45 227.55 100.66 227.38 101.03 227.38L105.17 227.38C106.90 227.38 107.77 229.62 108.64 230.82L112.98 236.98C115.14 240 117.66 240.08 121.22 240.08C121.42 240.08 122.09 240.08 122.09 239.75ZM110.54 219.40C110.54 221.63 109.63 224.78 107.44 225.81C106.90 226.06 105.83 226.06 105.25 226.06L103.47 226.06C103.01 226.06 100.45 226.06 100.45 225.44L100.45 214.35C100.45 213.44 100.70 212.32 101.81 212.32L103.06 212.32C107.36 212.32 110.54 214.93 110.54 219.40ZM152.04 224.90C152.04 218.82 148.52 213.19 142.69 211.12C140.87 210.50 139.01 210.38 137.10 210.38C130.53 210.38 125.48 215.09 123.95 221.30C123.58 222.79 123.49 224.28 123.49 225.77C123.49 234.62 129.45 240.66 138.35 240.66C147.61 240.66 152.04 233.42 152.04 224.90ZM149.14 228.09C149.14 234.58 145.54 239.42 138.72 239.42C130.61 239.42 126.55 231.39 126.55 224.20C126.55 217.54 129.78 211.62 137.15 211.62C145.71 211.62 149.14 220.85 149.14 228.09ZM180.59 239.96C180.59 239.83 179.59 239.67 179.43 239.63C178.81 239.42 178.43 239.09 178.10 238.51C177.69 237.81 177.36 237.02 177.07 236.28L169.17 215.43C168.50 213.73 168.05 211.99 167.35 210.34C167.26 210.17 167.10 209.59 166.81 209.59C166.48 209.59 165.65 212.20 164.49 215.09L157.50 232.59C156.63 234.83 155.35 238.18 154.15 239.34C153.74 239.71 152.87 239.67 152.87 239.88C152.87 240.12 153.32 240.12 153.45 240.12C154.44 240.12 155.10 240 156.09 240C156.92 240 158.16 240.12 158.99 240.12C159.11 240.12 159.40 240.12 159.40 239.92C159.40 239.71 158.58 239.63 158.41 239.54C157.83 239.21 157.62 238.68 157.62 238.06C157.62 237.52 158.08 235.90 158.29 235.37L160.02 230.65C160.48 229.45 160.60 229.45 161.84 229.45L170.08 229.45C171.52 229.45 171.61 229.66 172.02 230.77L173.97 235.95C174.17 236.57 174.46 237.56 174.46 238.18C174.46 238.84 174.21 239.42 173.55 239.63C173.30 239.71 172.27 239.63 172.27 240C172.27 240.12 172.93 240.12 173.01 240.12C174.13 240.12 175.21 240 176.32 240C177.65 240 178.97 240.17 180.30 240.17C180.42 240.17 180.59 240.12 180.59 239.96ZM170.82 227.55C170.82 227.92 170.24 227.92 169.79 227.92L161.80 227.92C161.47 227.92 161.26 227.92 161.26 227.67C161.26 227.34 163.46 221.88 163.66 221.30L165.28 217.20C165.73 216.05 165.98 215.59 166.19 215.59C166.39 215.59 166.68 216.13 167.39 218.03L168.67 221.47C168.88 222.00 170.82 227.22 170.82 227.55ZM210.83 224.90C210.83 219.98 208.59 214.89 204.17 212.45C202.02 211.25 198.50 210.75 196.06 210.75C193.08 210.75 190.14 211.04 187.16 211.04C186.09 211.04 185.05 210.87 183.98 210.87C183.89 210.87 182.94 210.87 182.94 211.16C182.94 211.37 183.19 211.41 183.36 211.41C185.38 211.41 185.96 212.74 185.96 214.60L185.96 233.63C185.96 234.75 185.92 237.77 185.38 238.72C185.09 239.26 184.31 239.54 183.65 239.67C183.48 239.71 182.78 239.71 182.78 239.92C182.78 240.12 183.15 240.17 183.36 240.17C184.68 240.17 186.00 240 187.33 240C190.18 240 193.00 240.33 195.85 240.33C205.45 240.33 210.83 234.17 210.83 224.90ZM208.10 226.06C208.10 234.08 204.79 239.21 196.43 239.21C194.36 239.21 191.92 239.01 190.02 238.06C189.89 237.97 189.31 237.68 189.23 237.60C188.69 237.06 188.61 231.56 188.61 230.53L188.61 213.73C188.61 211.78 189.40 212.03 191.09 211.95C192.42 211.91 193.91 211.91 194.15 211.91C196.39 211.91 199.20 212.41 201.19 213.48C205.66 215.92 208.10 221.09 208.10 226.06Z" fill="#000000" style="fill: rgb(0, 0, 0);"></path></g><g id="SvgjsG1823" rel="mainfill" name="symbol" xmlns:name="symbol_mainfill" transform="translate(0.0003562927246022696,-0.007740481942892075) scale(0.8)" fill="#000000"><path d="M47.116,28.615c-0.391,0.66,0.231,0.778,0.969,0.529c3.414-1.035,6.217-1.46,8.546-1.41c2.003-2.548,4.242-5.019,6.743-7.402c-2.964-0.885-6.05-1.143-9.275-0.691C51.567,22.42,49.248,25.418,47.116,28.615z" fill="#000000" style="fill: rgb(0, 0, 0);"></path><path d="M49.597,35.265c2.553,0,1.553,2.069-2.233,4.622s-8.926,4.623-11.479,4.623c-2.553,0-1.553-2.07,2.234-4.623C41.906,37.334,47.045,35.265,49.597,35.265z" fill="#000000" style="fill: rgb(0, 0, 0);"></path><polygon points="87.031,39.217 86.039,39.923 86.092,39.608 "></polygon><polygon points="84.57,40.135 86.621,38.676 86.514,39.324 "></polygon><path d="M82.3,40.848c2.06-1.23,2.608,0.223,4.138,0.405c0.529,0.062,1.137-0.368,1.344-1.462c0.387-1.336,1.172-2.111,2.411-2.484c-1.88,0.99-2.614,3.162-1.259,4.798l-3.271,1.79C86.125,41.998,85.117,40.218,82.3,40.848z" fill="#000000" style="fill: rgb(0, 0, 0);"></path><path d="M91.49,37.375c1.232-0.045,1.982,0.929,1.678,2.174c-0.099,0.403-0.297,0.786-0.562,1.121l2.298-1.231l0.311,0.646L33.77,72.99l-0.312-0.645l19.433-10.408c-0.415,0.109-0.836,0.174-1.256,0.182c-2.646,0.053-4.222-2.061-3.525-4.721c0.698-2.658,3.408-4.857,6.053-4.911s4.223,2.06,3.525,4.72c-0.335,1.273-1.13,2.44-2.158,3.318l13.31-7.129c-0.074,0.006-0.149,0.01-0.222,0.012c-2.299,0.045-3.669-1.79-3.062-4.102c0.605-2.311,2.959-4.221,5.258-4.266c2.297-0.047,3.668,1.789,3.062,4.1c-0.209,0.799-0.628,1.549-1.181,2.193l9.431-5.053l-0.045,0.003c-1.419,0.052-2.282-1.069-1.931-2.501c0.352-1.434,1.785-2.636,3.204-2.687c1.419-0.052,2.283,1.067,1.931,2.501c-0.123,0.5-0.377,0.972-0.718,1.377l5.772-3.092c-1.203,0.02-1.933-0.944-1.631-2.174C89.012,38.464,90.258,37.42,91.49,37.375L91.49,37.375z" fill="#000000" style="fill: rgb(0, 0, 0);"></path><polygon points="62.334,48.221 60.135,49.735 60.26,49.049 "></polygon><polygon points="56.908,50.15 61.453,47.021 61.195,48.441 "></polygon><path d="M51.557,51.729c4.559-2.627,5.707,0.578,9.053,1.029c1.156,0.156,2.504-0.766,2.996-3.153c0.892-2.917,2.641-4.585,5.369-5.361c-4.152,2.106-5.84,6.837-2.928,10.47l-7.23,3.809C59.896,54.381,57.75,50.445,51.557,51.729L51.557,51.729z" fill="#000000" style="fill: rgb(0, 0, 0);"></path><path d="M55.297,40.165c0.828,0,0.504,0.672-0.727,1.502c-1.231,0.829-2.901,1.503-3.73,1.503c-0.831,0-0.504-0.674,0.727-1.503C52.796,40.837,54.467,40.165,55.297,40.165z" fill="#000000" style="fill: rgb(0, 0, 0);"></path><path d="M62.768,30.873c1.404,0,0.854,1.139-1.229,2.543c-2.082,1.404-4.909,2.542-6.312,2.542c-1.404,0-0.854-1.137,1.229-2.542S61.363,30.873,62.768,30.873z" fill="#000000" style="fill: rgb(0, 0, 0);"></path><polygon points="78.996,15.086 85.871,15.522 86.025,25.508 79.259,26.15 78.996,15.086 "></polygon><path d="M59.334,9.899c4.123-3.396,9.146-2.635,16.322-1.548c0.607,0.092,1.234,0.187,1.779,0.268h0.002l19.023,2.925l-10.383-0.872L77.33,9.327l0,0c-0.67-0.099-1.23-0.184-1.78-0.268c-5.114-0.774-9.106-1.378-12.399-0.398C61.342,9.2,60.371,9.598,59.334,9.899L59.334,9.899z" fill="#000000" style="fill: rgb(0, 0, 0);"></path><path d="M63.882,1.98l18.735,4.271l-0.601-1.309l-0.365-0.077l0.192-0.921l0.215,0.045l1.25-2.849h-0.27l0.391-0.628l-2.266,0.059h-0.003c-0.731,0.004-1.335,0.071-1.796,0.363c-0.508,0.321-0.84,0.774-0.971,1.251L78.11,2.108c0.147-0.546,0.523-1.06,1.098-1.423c0.503-0.319,1.159-0.522,1.948-0.527l5.623-0.146l0,0c0.979-0.023,1.605,0.125,2.059,0.43c0.458,0.307,0.727,0.762,0.986,1.354l-0.27,0.118c-0.24-0.544-0.482-0.96-0.881-1.227c-0.4-0.271-0.977-0.283-1.889-0.262l-2.578,0.067l-0.389,0.648h-0.316l-1.266,2.887l0.234,0.048l-0.165,0.792l0.673,1.467l15.891,3.623l0.158,0.854L70.131,5.608C68.113,4.091,66.029,2.889,63.882,1.98L63.882,1.98z" fill="#000000" style="fill: rgb(0, 0, 0);"></path><polygon fill="none" points="11.176,29.822 11.546,29.925 13.161,30.372 13.251,30.398 13.323,30.338 14.008,29.771 13.598,29.645 13.166,30.002 12.013,29.683 12.544,29.32 12.107,29.184 11.493,29.604 "></polygon><polygon points="12.107,29.184 12.436,28.959 12.107,29.184 "></polygon><path d="M52.607,47.412c-0.744,0.211-1.238,0.185-1.926,1.088c-2.959,4.383-7.076,11.758-8.877,13.149c-0.893,0.64-0.549,2.119-1.089,2.847c-8.876,2.776-18.058,4.357-26.817,3.246c-1.494-0.281-3.768-0.422-2.661-3.162c0.456-1.565-0.439-3.176-3.517-4.857c-7.557-4.394-8.041-12.081-3.177-22.26c-1.76,4.361-1.224,7.53,1.993,8.469c10.458,2.224,23.342-6.789,34.909-18.684c-4.812,0.896-9.619,1.765-14.334,2.176l-0.818-1.169c5.047-0.321,10.669-1.151,16.337-2.321l0.19-0.106c0.654-0.7,1.304-1.4,1.949-2.094c4.313-4.646,8.419-9.07,12.449-12.195l0.477-0.37l-0.553-0.241c-3.258-1.416-6.979-2.438-11.277-2.972c-4.285-0.533-9.15-0.581-14.706-0.055l-0.163,0.056c-3.779,2.476-7.468,5.435-10.787,8.62c-3.305,3.17-6.243,6.565-8.542,9.927l-0.26,0.38l0.435,0.157c0.735,0.267,1.542,0.491,2.412,0.677l-1.816,1.241l-0.329,0.225l0.437,0.136l-0.531,0.363l1.153,0.32l0.432-0.358l0.41,0.126l-0.685,0.567l-0.072,0.061l-0.09-0.026l-1.615-0.447l-0.371-0.103l0.317-0.217l0.614-0.42l0,0l0.329-0.225l0.34-0.232c-0.775-0.177-1.545-0.384-2.308-0.618c-1.232,1.495-2.309,2.948-3.224,4.34l0.006-0.009l-0.014,0.021c-0.312,0.476-0.605,0.943-0.878,1.403c-5.72,9.24-10.678,19.591-0.398,25.942c1.331,1.179,5.496,2.416,3.936,5.61c-0.476,1.147-0.253,2.029,0.589,2.673l-6.563,2.854L4.208,71.6l7.042-3.062c0.612,0.28,1.394,0.494,2.332,0.648c9.464,0.687,18.927-0.618,28.391-3.35c0.816-0.625,0.175-2.576,1.256-3.601c2.941-2.388,5.303-8.152,7.956-12.228c0.786-1.039,1.007-1.142,2.009-1.424c1.486,0.368,24.789-8.096,37.184-12.143C77.788,40.098,54.696,47.688,52.607,47.412z M27.445,29.904l0.252,0.358l0.189,0.271l-0.331,0.011l-1.52,0.052l-0.104,0.003l-0.054-0.09l-0.324-0.535l-0.25-0.416c-3.577,0.218-7.095,0.139-10.514-0.434l1.31-1.085c2.399,0.335,5.163,0.428,8.168,0.318l0.304-0.012l0.732,1.213l0.25,0.416l0.41-0.015l0.167,0.276l1.085-0.038L27.02,29.92L27.445,29.904z M15.586,27.24l4.213-2.881l-0.072,0.113l-0.111,0.19l-3.252,2.692C16.1,27.319,15.84,27.281,15.586,27.24z M22.156,23.646l0.103-0.146l0.131-0.198l3,4.289c-0.278,0.014-0.556,0.027-0.832,0.039L22.156,23.646z M26.698,29.459c-0.331,0.027-0.661,0.051-0.991,0.073l-0.728-1.206c0.295-0.013,0.594-0.03,0.894-0.046L26.698,29.459z M12.524,26.521c2.23-3.195,5.036-6.413,8.179-9.429c3.264-3.131,6.891-6.044,10.611-8.486c5.458-0.513,10.243-0.462,14.461,0.062c3.989,0.496,7.466,1.415,10.524,2.681c-3.924,3.136-7.896,7.413-12.058,11.897c-0.619,0.666-1.242,1.338-1.871,2.01c-5.764,1.185-11.474,2.016-16.562,2.312l-3.209-4.585l1.876-2.842l-0.151-0.12l-2.336,3.24l-2.585,3.879l0.183,0.138l2.343-3.312l2.218,3.68c-2.662,0.095-5.124,0.027-7.297-0.229l2.233-1.849l-0.906,1.545l0.206,0.129l1.712-2.688l2.455-4.199l-0.149-0.097l-2.12,3.34l-0.001-0.002l-5.203,3.557C14.158,26.985,13.304,26.774,12.524,26.521z M13.255,28.833l1.486-1.016c0.287,0.055,0.582,0.105,0.88,0.152l-1.298,1.074C13.967,28.979,13.61,28.91,13.255,28.833z" fill="#000000" style="fill: rgb(0, 0, 0);"></path><path d="M19.727,24.473l0.072-0.113l-4.213,2.881c0.254,0.041,0.514,0.079,0.777,0.114l3.252-2.692L19.727,24.473z" fill="#000000" style="fill: rgb(0, 0, 0);"></path><path d="M22.39,23.302L22.259,23.5l-0.103,0.146l2.402,3.984c0.275-0.012,0.553-0.025,0.832-0.039L22.39,23.302z" fill="#000000" style="fill: rgb(0, 0, 0);"></path><path d="M32.471,6.967c9.827-1.473,17.7-0.178,26.369,3.013c4.097-3.196,6.819-4.488,9.277-4.734C57.1-1.792,45.126-0.418,32.471,6.967z" fill="#000000" style="fill: rgb(0, 0, 0);"></path><path d="M75.416,35.862c-0.42-8.403-0.842-16.804-1.262-25.207l-5.857-0.574l1.492,24.804c0.004,2.706-0.589,4.409-1.779,6.029c1.971-0.458,3.942-0.918,5.914-1.378C75.129,38.914,75.493,37.64,75.416,35.862z M70.279,26.061l-0.773-14.605l3.504,0.273l0.729,14.059L70.279,26.061z" fill="#000000" style="fill: rgb(0, 0, 0);"></path><polygon points="86.502,15.562 90.867,15.839 91.008,25.035 86.654,25.448 86.502,15.562 "></polygon><polygon points="91.498,15.879 94.942,16.099 95.074,24.65 91.639,24.976 "></polygon><polygon points="95.574,16.138 97.641,16.269 97.766,24.395 95.705,24.589 95.574,16.137 "></polygon><polygon points="98.271,16.309 99.983,16.417 100,24.182 98.396,24.334 "></polygon><path d="M63.454,20.255c0.532-0.505,1.077-1.009,1.634-1.507c2.472-2.547-1.232-7.528-2.82-6.696c-2.506,1.955-4.846,4.083-7.033,6.371C58.24,18.411,60.928,19.147,63.454,20.255L63.454,20.255z" fill="#000000" style="fill: rgb(0, 0, 0);"></path></g></svg>